<mxfile host="app.diagrams.net" agent="Mozilla/5.0 (Windows NT 10.0; Win64; x64; rv:137.0) Gecko/20100101 Firefox/137.0" version="27.0.6">
  <diagram id="C5RBs43oDa-KdzZeNtuy" name="Page-1">
    <mxGraphModel dx="1188" dy="-514" grid="0" gridSize="10" guides="1" tooltips="1" connect="1" arrows="1" fold="1" page="1" pageScale="1" pageWidth="827" pageHeight="1169" math="0" shadow="0">
      <root>
        <mxCell id="WIyWlLk6GJQsqaUBKTNV-0" />
        <mxCell id="WIyWlLk6GJQsqaUBKTNV-1" parent="WIyWlLk6GJQsqaUBKTNV-0" />
        <mxCell id="qjPhhf1BPXPf3cThABQ9-204" value="`" style="rounded=0;whiteSpace=wrap;html=1;fillColor=#262C36;strokeColor=#262C36;strokeWidth=3;labelBorderColor=#737C95;fontColor=default;" vertex="1" parent="WIyWlLk6GJQsqaUBKTNV-1">
          <mxGeometry x="433" y="1542" width="1216" height="881" as="geometry" />
        </mxCell>
        <mxCell id="qjPhhf1BPXPf3cThABQ9-205" style="edgeStyle=orthogonalEdgeStyle;rounded=0;orthogonalLoop=1;jettySize=auto;html=1;exitX=-0.001;exitY=0.146;exitDx=0;exitDy=0;exitPerimeter=0;fontColor=#D1D7E0;labelBackgroundColor=#212830;labelBorderColor=none;strokeColor=#737C95;strokeWidth=2;entryX=-0.005;entryY=0.248;entryDx=0;entryDy=0;entryPerimeter=0;" edge="1" parent="WIyWlLk6GJQsqaUBKTNV-1" source="qjPhhf1BPXPf3cThABQ9-207" target="qjPhhf1BPXPf3cThABQ9-208">
          <mxGeometry relative="1" as="geometry">
            <mxPoint x="1182" y="1783" as="targetPoint" />
          </mxGeometry>
        </mxCell>
        <mxCell id="qjPhhf1BPXPf3cThABQ9-206" style="edgeStyle=orthogonalEdgeStyle;rounded=0;orthogonalLoop=1;jettySize=auto;html=1;exitX=0.011;exitY=0.15;exitDx=0;exitDy=0;exitPerimeter=0;entryX=1;entryY=0.5;entryDx=0;entryDy=0;fontColor=#D1D7E0;labelBackgroundColor=#212830;labelBorderColor=none;strokeColor=#737C95;strokeWidth=2;" edge="1" parent="WIyWlLk6GJQsqaUBKTNV-1" source="qjPhhf1BPXPf3cThABQ9-207" target="qjPhhf1BPXPf3cThABQ9-210">
          <mxGeometry relative="1" as="geometry">
            <mxPoint x="1100" y="2167" as="targetPoint" />
            <Array as="points">
              <mxPoint x="1170" y="1974" />
              <mxPoint x="1170" y="2177" />
            </Array>
          </mxGeometry>
        </mxCell>
        <mxCell id="qjPhhf1BPXPf3cThABQ9-207" value="&lt;div style=&quot;box-sizing: border-box; width: 100%; background-position: 0% 0%; background-repeat: repeat; background-attachment: scroll; background-image: none; background-size: auto; background-origin: padding-box; background-clip: border-box; padding: 2px;&quot;&gt;Player&lt;/div&gt;&lt;table style=&quot;width:100%;font-size:1em;&quot; cellpadding=&quot;2&quot; cellspacing=&quot;0&quot;&gt;&lt;tbody&gt;&lt;tr&gt;&lt;td&gt;PK&lt;/td&gt;&lt;td&gt;long Id&lt;/td&gt;&lt;/tr&gt;&lt;tr&gt;&lt;td&gt;FK&lt;/td&gt;&lt;td&gt;&lt;br&gt;&lt;/td&gt;&lt;/tr&gt;&lt;tr&gt;&lt;td&gt;&lt;br&gt;&lt;/td&gt;&lt;td&gt;DateTime LastActivity&lt;br&gt;bool IsPublicForLadder&lt;br&gt;string PublicName&lt;br&gt;int Rating&lt;br&gt;long SteamId&lt;br&gt;longDotaId&lt;br&gt;DateTime CreatedAt&lt;/td&gt;&lt;/tr&gt;&lt;/tbody&gt;&lt;/table&gt;" style="verticalAlign=top;align=left;overflow=fill;html=1;whiteSpace=wrap;fontColor=#D1D7E0;labelBackgroundColor=#212830;labelBorderColor=#737C95;strokeColor=none;strokeWidth=2;fillColor=none;" vertex="1" parent="WIyWlLk6GJQsqaUBKTNV-1">
          <mxGeometry x="1190" y="1947" width="190" height="180" as="geometry" />
        </mxCell>
        <mxCell id="qjPhhf1BPXPf3cThABQ9-208" value="&lt;div style=&quot;box-sizing: border-box; width: 100%; background-position: 0% 0%; background-repeat: repeat; background-attachment: scroll; background-image: none; background-size: auto; background-origin: padding-box; background-clip: border-box; padding: 2px;&quot;&gt;Match&lt;/div&gt;&lt;table style=&quot;width:100%;font-size:1em;&quot; cellpadding=&quot;2&quot; cellspacing=&quot;0&quot;&gt;&lt;tbody&gt;&lt;tr&gt;&lt;td&gt;PK&lt;/td&gt;&lt;td&gt;long Id&lt;/td&gt;&lt;/tr&gt;&lt;tr&gt;&lt;td&gt;FK&lt;/td&gt;&lt;td&gt;long PlayerId&lt;br&gt;long BaseId&lt;br&gt;long CharacterId&lt;/td&gt;&lt;/tr&gt;&lt;tr&gt;&lt;td&gt;&lt;br&gt;&lt;/td&gt;&lt;td&gt;DateTime StartTime&lt;br&gt;DateTime EndTime&lt;br&gt;int Rating Change&lt;br&gt;MatchResultType Result&lt;/td&gt;&lt;/tr&gt;&lt;/tbody&gt;&lt;/table&gt;" style="verticalAlign=top;align=left;overflow=fill;html=1;whiteSpace=wrap;fontColor=#D1D7E0;labelBackgroundColor=#212830;labelBorderColor=#737C95;strokeColor=none;strokeWidth=2;fillColor=none;" vertex="1" parent="WIyWlLk6GJQsqaUBKTNV-1">
          <mxGeometry x="1190" y="1737" width="190" height="180" as="geometry" />
        </mxCell>
        <mxCell id="qjPhhf1BPXPf3cThABQ9-209" value="&lt;div style=&quot;box-sizing: border-box; width: 100%; background-position: 0% 0%; background-repeat: repeat; background-attachment: scroll; background-image: none; background-size: auto; background-origin: padding-box; background-clip: border-box; padding: 2px;&quot;&gt;MatchResultType&lt;/div&gt;&lt;table style=&quot;width:100%;font-size:1em;&quot; cellpadding=&quot;2&quot; cellspacing=&quot;0&quot;&gt;&lt;tbody&gt;&lt;tr&gt;&lt;td&gt;PK&lt;/td&gt;&lt;td&gt;long Id&lt;/td&gt;&lt;/tr&gt;&lt;tr&gt;&lt;td&gt;FK&lt;/td&gt;&lt;td&gt;&lt;br&gt;&lt;/td&gt;&lt;/tr&gt;&lt;tr&gt;&lt;td&gt;&lt;br&gt;&lt;/td&gt;&lt;td&gt;String Result&lt;/td&gt;&lt;/tr&gt;&lt;/tbody&gt;&lt;/table&gt;" style="verticalAlign=top;align=left;overflow=fill;html=1;whiteSpace=wrap;fontColor=#D1D7E0;labelBackgroundColor=#212830;labelBorderColor=#737C95;strokeColor=none;strokeWidth=2;fillColor=none;" vertex="1" parent="WIyWlLk6GJQsqaUBKTNV-1">
          <mxGeometry x="1440" y="1737" width="170" height="180" as="geometry" />
        </mxCell>
        <mxCell id="qjPhhf1BPXPf3cThABQ9-210" value="&lt;div style=&quot;box-sizing: border-box; width: 100%; background-position: 0% 0%; background-repeat: repeat; background-attachment: scroll; background-image: none; background-size: auto; background-origin: padding-box; background-clip: border-box; padding: 2px;&quot;&gt;MatchBattle&lt;/div&gt;&lt;table style=&quot;width:100%;font-size:1em;&quot; cellpadding=&quot;2&quot; cellspacing=&quot;0&quot;&gt;&lt;tbody&gt;&lt;tr&gt;&lt;td&gt;PK&lt;/td&gt;&lt;td&gt;long Id&lt;/td&gt;&lt;/tr&gt;&lt;tr&gt;&lt;td&gt;FK&lt;/td&gt;&lt;td&gt;long MatchId&lt;/td&gt;&lt;/tr&gt;&lt;tr&gt;&lt;td&gt;&lt;br&gt;&lt;/td&gt;&lt;td&gt;DateTime Date&lt;br&gt;long PlayerDefendId&lt;br&gt;long PlayerAttackId&lt;br&gt;BattleState State&lt;/td&gt;&lt;/tr&gt;&lt;/tbody&gt;&lt;/table&gt;" style="verticalAlign=top;align=left;overflow=fill;html=1;whiteSpace=wrap;fontColor=#D1D7E0;labelBackgroundColor=#212830;labelBorderColor=#737C95;strokeColor=none;strokeWidth=2;fillColor=none;" vertex="1" parent="WIyWlLk6GJQsqaUBKTNV-1">
          <mxGeometry x="914" y="2087" width="180" height="180" as="geometry" />
        </mxCell>
        <mxCell id="qjPhhf1BPXPf3cThABQ9-211" value="&lt;div style=&quot;box-sizing: border-box; width: 100%; background-position: 0% 0%; background-repeat: repeat; background-attachment: scroll; background-image: none; background-size: auto; background-origin: padding-box; background-clip: border-box; padding: 2px;&quot;&gt;Character&lt;/div&gt;&lt;table style=&quot;width:100%;font-size:1em;&quot; cellpadding=&quot;2&quot; cellspacing=&quot;0&quot;&gt;&lt;tbody&gt;&lt;tr&gt;&lt;td&gt;PK&lt;/td&gt;&lt;td&gt;long Id&lt;/td&gt;&lt;/tr&gt;&lt;tr&gt;&lt;td&gt;FK&lt;/td&gt;&lt;td&gt;&lt;br&gt;&lt;/td&gt;&lt;/tr&gt;&lt;tr&gt;&lt;td&gt;&lt;br&gt;&lt;/td&gt;&lt;td&gt;int Level&lt;br&gt;int Expirience&lt;/td&gt;&lt;/tr&gt;&lt;/tbody&gt;&lt;/table&gt;" style="verticalAlign=top;align=left;overflow=fill;html=1;whiteSpace=wrap;fontColor=#D1D7E0;labelBackgroundColor=#212830;labelBorderColor=#737C95;strokeColor=none;strokeWidth=2;fillColor=none;" vertex="1" parent="WIyWlLk6GJQsqaUBKTNV-1">
          <mxGeometry x="910" y="1857" width="180" height="180" as="geometry" />
        </mxCell>
        <mxCell id="qjPhhf1BPXPf3cThABQ9-212" style="edgeStyle=orthogonalEdgeStyle;rounded=0;orthogonalLoop=1;jettySize=auto;html=1;entryX=0;entryY=0.158;entryDx=0;entryDy=0;entryPerimeter=0;exitX=1;exitY=0.25;exitDx=0;exitDy=0;fontColor=#D1D7E0;labelBackgroundColor=#212830;labelBorderColor=none;strokeColor=#737C95;strokeWidth=2;" edge="1" parent="WIyWlLk6GJQsqaUBKTNV-1" source="qjPhhf1BPXPf3cThABQ9-213" target="qjPhhf1BPXPf3cThABQ9-211">
          <mxGeometry relative="1" as="geometry" />
        </mxCell>
        <mxCell id="qjPhhf1BPXPf3cThABQ9-213" value="&lt;div style=&quot;box-sizing: border-box; width: 100%; background-position: 0% 0%; background-repeat: repeat; background-attachment: scroll; background-image: none; background-size: auto; background-origin: padding-box; background-clip: border-box; padding: 2px;&quot;&gt;CharacterItem&lt;/div&gt;&lt;table style=&quot;width:100%;font-size:1em;&quot; cellpadding=&quot;2&quot; cellspacing=&quot;0&quot;&gt;&lt;tbody&gt;&lt;tr&gt;&lt;td&gt;PK&lt;/td&gt;&lt;td&gt;long Id&lt;/td&gt;&lt;/tr&gt;&lt;tr&gt;&lt;td&gt;FK&lt;/td&gt;&lt;td&gt;long CharacterId&lt;/td&gt;&lt;/tr&gt;&lt;tr&gt;&lt;td&gt;&lt;br&gt;&lt;/td&gt;&lt;td&gt;string Name&lt;/td&gt;&lt;/tr&gt;&lt;/tbody&gt;&lt;/table&gt;" style="verticalAlign=top;align=left;overflow=fill;html=1;whiteSpace=wrap;fontColor=#D1D7E0;labelBackgroundColor=#212830;labelBorderColor=#737C95;strokeColor=none;strokeWidth=2;fillColor=none;" vertex="1" parent="WIyWlLk6GJQsqaUBKTNV-1">
          <mxGeometry x="680" y="1807" width="180" height="180" as="geometry" />
        </mxCell>
        <mxCell id="qjPhhf1BPXPf3cThABQ9-214" value="&lt;div style=&quot;box-sizing: border-box; width: 100%; background-position: 0% 0%; background-repeat: repeat; background-attachment: scroll; background-image: none; background-size: auto; background-origin: padding-box; background-clip: border-box; padding: 2px;&quot;&gt;CharacterAbility&lt;/div&gt;&lt;table style=&quot;width:100%;font-size:1em;&quot; cellpadding=&quot;2&quot; cellspacing=&quot;0&quot;&gt;&lt;tbody&gt;&lt;tr&gt;&lt;td&gt;PK&lt;/td&gt;&lt;td&gt;long Id&lt;/td&gt;&lt;/tr&gt;&lt;tr&gt;&lt;td&gt;FK&lt;/td&gt;&lt;td&gt;long CharacterId&lt;/td&gt;&lt;/tr&gt;&lt;tr&gt;&lt;td&gt;&lt;br&gt;&lt;/td&gt;&lt;td&gt;string Name&lt;br&gt;int Level&lt;/td&gt;&lt;/tr&gt;&lt;/tbody&gt;&lt;/table&gt;" style="verticalAlign=top;align=left;overflow=fill;html=1;whiteSpace=wrap;fontColor=#D1D7E0;labelBackgroundColor=#212830;labelBorderColor=#737C95;strokeColor=none;strokeWidth=2;fillColor=none;" vertex="1" parent="WIyWlLk6GJQsqaUBKTNV-1">
          <mxGeometry x="680" y="2012" width="180" height="180" as="geometry" />
        </mxCell>
        <mxCell id="qjPhhf1BPXPf3cThABQ9-215" style="edgeStyle=orthogonalEdgeStyle;rounded=0;orthogonalLoop=1;jettySize=auto;html=1;entryX=1.017;entryY=0.635;entryDx=0;entryDy=0;entryPerimeter=0;exitX=-0.016;exitY=0.16;exitDx=0;exitDy=0;exitPerimeter=0;fontColor=#D1D7E0;labelBackgroundColor=#212830;labelBorderColor=none;strokeColor=#737C95;strokeWidth=2;" edge="1" parent="WIyWlLk6GJQsqaUBKTNV-1" source="qjPhhf1BPXPf3cThABQ9-209" target="qjPhhf1BPXPf3cThABQ9-208">
          <mxGeometry relative="1" as="geometry" />
        </mxCell>
        <mxCell id="qjPhhf1BPXPf3cThABQ9-216" style="edgeStyle=orthogonalEdgeStyle;rounded=0;orthogonalLoop=1;jettySize=auto;html=1;entryX=-0.01;entryY=0.16;entryDx=0;entryDy=0;entryPerimeter=0;exitX=1;exitY=0.25;exitDx=0;exitDy=0;fontColor=#D1D7E0;labelBackgroundColor=#212830;labelBorderColor=none;strokeColor=#737C95;strokeWidth=2;" edge="1" parent="WIyWlLk6GJQsqaUBKTNV-1" source="qjPhhf1BPXPf3cThABQ9-210" target="qjPhhf1BPXPf3cThABQ9-208">
          <mxGeometry relative="1" as="geometry">
            <Array as="points">
              <mxPoint x="1140" y="2132" />
              <mxPoint x="1140" y="1766" />
            </Array>
          </mxGeometry>
        </mxCell>
        <mxCell id="qjPhhf1BPXPf3cThABQ9-217" style="edgeStyle=orthogonalEdgeStyle;rounded=0;orthogonalLoop=1;jettySize=auto;html=1;entryX=0.001;entryY=0.163;entryDx=0;entryDy=0;entryPerimeter=0;exitX=1;exitY=0.25;exitDx=0;exitDy=0;fontColor=#D1D7E0;labelBackgroundColor=#212830;labelBorderColor=none;strokeColor=#737C95;strokeWidth=2;" edge="1" parent="WIyWlLk6GJQsqaUBKTNV-1" source="qjPhhf1BPXPf3cThABQ9-214" target="qjPhhf1BPXPf3cThABQ9-211">
          <mxGeometry relative="1" as="geometry" />
        </mxCell>
        <mxCell id="qjPhhf1BPXPf3cThABQ9-218" style="edgeStyle=orthogonalEdgeStyle;rounded=0;orthogonalLoop=1;jettySize=auto;html=1;entryX=1.006;entryY=0.406;entryDx=0;entryDy=0;entryPerimeter=0;exitX=0.005;exitY=0.144;exitDx=0;exitDy=0;exitPerimeter=0;fontColor=#D1D7E0;labelBackgroundColor=#212830;labelBorderColor=none;strokeColor=#737C95;strokeWidth=2;" edge="1" parent="WIyWlLk6GJQsqaUBKTNV-1" source="qjPhhf1BPXPf3cThABQ9-207" target="qjPhhf1BPXPf3cThABQ9-210">
          <mxGeometry relative="1" as="geometry">
            <Array as="points">
              <mxPoint x="1170" y="1973" />
              <mxPoint x="1170" y="2160" />
            </Array>
          </mxGeometry>
        </mxCell>
        <mxCell id="qjPhhf1BPXPf3cThABQ9-219" value="&lt;div style=&quot;box-sizing: border-box; width: 100%; background-position: 0% 0%; background-repeat: repeat; background-attachment: scroll; background-image: none; background-size: auto; background-origin: padding-box; background-clip: border-box; padding: 2px;&quot;&gt;Base&lt;/div&gt;&lt;table style=&quot;width:100%;font-size:1em;&quot; cellpadding=&quot;2&quot; cellspacing=&quot;0&quot;&gt;&lt;tbody&gt;&lt;tr&gt;&lt;td&gt;PK&lt;/td&gt;&lt;td&gt;long Id&lt;/td&gt;&lt;/tr&gt;&lt;tr&gt;&lt;td&gt;FK&lt;/td&gt;&lt;td&gt;&lt;br&gt;&lt;/td&gt;&lt;/tr&gt;&lt;tr&gt;&lt;td&gt;&lt;br&gt;&lt;/td&gt;&lt;td&gt;int Level&lt;/td&gt;&lt;/tr&gt;&lt;/tbody&gt;&lt;/table&gt;" style="verticalAlign=top;align=left;overflow=fill;html=1;whiteSpace=wrap;fontColor=#D1D7E0;labelBackgroundColor=#212830;labelBorderColor=#737C95;strokeColor=none;strokeWidth=2;fillColor=none;" vertex="1" parent="WIyWlLk6GJQsqaUBKTNV-1">
          <mxGeometry x="910" y="1557" width="180" height="180" as="geometry" />
        </mxCell>
        <mxCell id="qjPhhf1BPXPf3cThABQ9-220" style="edgeStyle=orthogonalEdgeStyle;rounded=0;orthogonalLoop=1;jettySize=auto;html=1;entryX=-0.012;entryY=0.16;entryDx=0;entryDy=0;entryPerimeter=0;fontColor=#D1D7E0;labelBackgroundColor=#212830;labelBorderColor=none;strokeColor=#737C95;strokeWidth=2;" edge="1" parent="WIyWlLk6GJQsqaUBKTNV-1" source="qjPhhf1BPXPf3cThABQ9-219" target="qjPhhf1BPXPf3cThABQ9-208">
          <mxGeometry relative="1" as="geometry" />
        </mxCell>
        <mxCell id="qjPhhf1BPXPf3cThABQ9-221" style="edgeStyle=orthogonalEdgeStyle;rounded=0;orthogonalLoop=1;jettySize=auto;html=1;exitX=1.008;exitY=0.179;exitDx=0;exitDy=0;exitPerimeter=0;fontColor=#D1D7E0;labelBackgroundColor=#212830;labelBorderColor=none;strokeColor=#737C95;strokeWidth=2;entryX=-0.008;entryY=0.405;entryDx=0;entryDy=0;entryPerimeter=0;" edge="1" parent="WIyWlLk6GJQsqaUBKTNV-1" source="qjPhhf1BPXPf3cThABQ9-211" target="qjPhhf1BPXPf3cThABQ9-208">
          <mxGeometry relative="1" as="geometry">
            <mxPoint x="1187" y="1810" as="targetPoint" />
          </mxGeometry>
        </mxCell>
        <mxCell id="qjPhhf1BPXPf3cThABQ9-222" value="&lt;div style=&quot;box-sizing: border-box; width: 100%; background-position: 0% 0%; background-repeat: repeat; background-attachment: scroll; background-image: none; background-size: auto; background-origin: padding-box; background-clip: border-box; padding: 2px;&quot;&gt;Structure&lt;/div&gt;&lt;table style=&quot;width:100%;font-size:1em;&quot; cellpadding=&quot;2&quot; cellspacing=&quot;0&quot;&gt;&lt;tbody&gt;&lt;tr&gt;&lt;td&gt;PK&lt;/td&gt;&lt;td&gt;long Id&lt;/td&gt;&lt;/tr&gt;&lt;tr&gt;&lt;td&gt;FK&lt;/td&gt;&lt;td&gt;long BaseId&lt;/td&gt;&lt;/tr&gt;&lt;tr&gt;&lt;td&gt;&lt;br&gt;&lt;/td&gt;&lt;td&gt;string Name&lt;br&gt;int Level&lt;br&gt;int Expirience&lt;br&gt;int GridX&lt;br&gt;int GridY&lt;br&gt;int GridZ&lt;br&gt;int Rotation&lt;/td&gt;&lt;/tr&gt;&lt;/tbody&gt;&lt;/table&gt;" style="verticalAlign=top;align=left;overflow=fill;html=1;whiteSpace=wrap;fontColor=#D1D7E0;labelBackgroundColor=#212830;labelBorderColor=#737C95;strokeColor=none;strokeWidth=2;fillColor=none;" vertex="1" parent="WIyWlLk6GJQsqaUBKTNV-1">
          <mxGeometry x="680" y="1557" width="180" height="180" as="geometry" />
        </mxCell>
        <mxCell id="qjPhhf1BPXPf3cThABQ9-223" style="edgeStyle=orthogonalEdgeStyle;rounded=0;orthogonalLoop=1;jettySize=auto;html=1;exitX=1;exitY=0.25;exitDx=0;exitDy=0;fontColor=#D1D7E0;labelBackgroundColor=#212830;labelBorderColor=none;strokeColor=#737C95;strokeWidth=2;entryX=-0.001;entryY=0.148;entryDx=0;entryDy=0;entryPerimeter=0;" edge="1" parent="WIyWlLk6GJQsqaUBKTNV-1" source="qjPhhf1BPXPf3cThABQ9-222" target="qjPhhf1BPXPf3cThABQ9-219">
          <mxGeometry relative="1" as="geometry">
            <mxPoint x="908" y="1584" as="targetPoint" />
          </mxGeometry>
        </mxCell>
        <mxCell id="qjPhhf1BPXPf3cThABQ9-224" value="&lt;div style=&quot;box-sizing: border-box; width: 100%; background-position: 0% 0%; background-repeat: repeat; background-attachment: scroll; background-image: none; background-size: auto; background-origin: padding-box; background-clip: border-box; padding: 2px;&quot;&gt;CharacterAbility&lt;/div&gt;&lt;table style=&quot;width:100%;font-size:1em;&quot; cellpadding=&quot;2&quot; cellspacing=&quot;0&quot;&gt;&lt;tbody&gt;&lt;tr&gt;&lt;td&gt;PK&lt;/td&gt;&lt;td&gt;long Id&lt;/td&gt;&lt;/tr&gt;&lt;tr&gt;&lt;td&gt;FK&lt;/td&gt;&lt;td&gt;long StructureId&lt;/td&gt;&lt;/tr&gt;&lt;tr&gt;&lt;td&gt;&lt;br&gt;&lt;/td&gt;&lt;td&gt;string Name&lt;br&gt;int Level&lt;/td&gt;&lt;/tr&gt;&lt;/tbody&gt;&lt;/table&gt;" style="verticalAlign=top;align=left;overflow=fill;html=1;whiteSpace=wrap;fontColor=#D1D7E0;labelBackgroundColor=#212830;labelBorderColor=#737C95;strokeColor=none;strokeWidth=2;fillColor=none;" vertex="1" parent="WIyWlLk6GJQsqaUBKTNV-1">
          <mxGeometry x="450" y="1557" width="180" height="180" as="geometry" />
        </mxCell>
        <mxCell id="qjPhhf1BPXPf3cThABQ9-225" style="edgeStyle=orthogonalEdgeStyle;rounded=0;orthogonalLoop=1;jettySize=auto;html=1;exitX=1;exitY=0.25;exitDx=0;exitDy=0;fontColor=#D1D7E0;labelBackgroundColor=#212830;labelBorderColor=none;strokeColor=#737C95;strokeWidth=2;entryX=-0.002;entryY=0.142;entryDx=0;entryDy=0;entryPerimeter=0;" edge="1" parent="WIyWlLk6GJQsqaUBKTNV-1" source="qjPhhf1BPXPf3cThABQ9-224" target="qjPhhf1BPXPf3cThABQ9-222">
          <mxGeometry relative="1" as="geometry">
            <mxPoint x="675" y="1582" as="targetPoint" />
          </mxGeometry>
        </mxCell>
        <mxCell id="qjPhhf1BPXPf3cThABQ9-226" style="edgeStyle=orthogonalEdgeStyle;rounded=0;orthogonalLoop=1;jettySize=auto;html=1;fontColor=#D1D7E0;labelBackgroundColor=#212830;labelBorderColor=none;strokeColor=#737C95;strokeWidth=2;" edge="1" parent="WIyWlLk6GJQsqaUBKTNV-1" source="qjPhhf1BPXPf3cThABQ9-227" target="qjPhhf1BPXPf3cThABQ9-210">
          <mxGeometry relative="1" as="geometry">
            <Array as="points">
              <mxPoint x="885" y="2257" />
              <mxPoint x="885" y="2197" />
            </Array>
          </mxGeometry>
        </mxCell>
        <mxCell id="qjPhhf1BPXPf3cThABQ9-227" value="&lt;div style=&quot;box-sizing: border-box; width: 100%; background-position: 0% 0%; background-repeat: repeat; background-attachment: scroll; background-image: none; background-size: auto; background-origin: padding-box; background-clip: border-box; padding: 2px;&quot;&gt;MatchResultType&lt;/div&gt;&lt;table style=&quot;width:100%;font-size:1em;&quot; cellpadding=&quot;2&quot; cellspacing=&quot;0&quot;&gt;&lt;tbody&gt;&lt;tr&gt;&lt;td&gt;PK&lt;/td&gt;&lt;td&gt;long Id&lt;/td&gt;&lt;/tr&gt;&lt;tr&gt;&lt;td&gt;FK&lt;/td&gt;&lt;td&gt;&lt;br&gt;&lt;/td&gt;&lt;/tr&gt;&lt;tr&gt;&lt;td&gt;&lt;br&gt;&lt;/td&gt;&lt;td&gt;String State&lt;/td&gt;&lt;/tr&gt;&lt;/tbody&gt;&lt;/table&gt;" style="verticalAlign=top;align=left;overflow=fill;html=1;whiteSpace=wrap;fontColor=#D1D7E0;labelBackgroundColor=#212830;labelBorderColor=#737C95;strokeColor=none;strokeWidth=2;fillColor=none;" vertex="1" parent="WIyWlLk6GJQsqaUBKTNV-1">
          <mxGeometry x="685" y="2227" width="170" height="180" as="geometry" />
        </mxCell>
      </root>
    </mxGraphModel>
  </diagram>
</mxfile>
